<svg width="49" height="47" viewBox="0 0 49 47" fill="none" xmlns="http://www.w3.org/2000/svg">
<rect x="29" width="17" height="47" rx="1" fill="#6EB9FF"/>
<rect x="40" y="12" width="9" height="9" rx="2" fill="#F4F4F4"/>
<rect x="32" y="5" width="4" height="4" rx="2" fill="#EDF6FF"/>
<path d="M13 7.86603C12.0718 7.33013 10.9282 7.33013 10 7.86603L3.04071 11.884C2.1125 12.4199 1.54071 13.4103 1.54071 14.4821V22.5179C1.54071 23.5897 2.1125 24.5801 3.04071 25.116L10 29.134C10.9282 29.6699 12.0718 29.6699 13 29.134L19.9593 25.116C20.8875 24.5801 21.4593 23.5897 21.4593 22.5179V14.4821C21.4593 13.4103 20.8875 12.4199 19.9593 11.884L13 7.86603Z" fill="#D5B14F"/>
<rect width="3" height="3" rx="1.5" transform="matrix(-1 0 0 1 19 13)" fill="#EDF6FF"/>
<rect width="4" height="4" rx="2" transform="matrix(-1 0 0 1 13 10)" fill="#EDF6FF"/>
<path d="M7 19.5C7 19.1717 7.06466 18.8466 7.1903 18.5433C7.31594 18.24 7.50009 17.9644 7.73223 17.7322C7.96438 17.5001 8.23998 17.3159 8.54329 17.1903C8.84661 17.0647 9.1717 17 9.5 17C9.8283 17 10.1534 17.0647 10.4567 17.1903C10.76 17.3159 11.0356 17.5001 11.2678 17.7322C11.4999 17.9644 11.6841 18.24 11.8097 18.5433C11.9353 18.8466 12 19.1717 12 19.5L9.5 19.5H7Z" fill="#EDF6FF"/>
<path d="M33 47H13V27C13 25.6868 13.2582 24.3861 13.7607 23.1729C14.2633 21.9596 15.0002 20.8573 15.9287 19.9287C16.8573 19.0002 17.9596 18.2633 19.1729 17.7607C20.3861 17.2582 21.6868 17 23 17C24.3132 17 25.6139 17.2582 26.8271 17.7607C28.0404 18.2633 29.1427 19.0002 30.0713 19.9287C30.9998 20.8573 31.7367 21.9596 32.2393 23.1729C32.7418 24.3861 33 25.6868 33 27V47Z" fill="#D9D9D9"/>
<rect x="16" y="27" width="9" height="5" rx="2" fill="#191919"/>
<rect x="27" y="27" width="9" height="5" rx="2" fill="#191919"/>
<rect x="23" y="27" width="7" height="2" fill="#191919"/>
</svg>
